<?xml version="1.0"?><svg xmlns="http://www.w3.org/2000/svg" xmlns:xlink="http://www.w3.org/1999/xlink" version="1.1" viewBox="0 0 192 192" width="500px" height="500px"><g transform=""><g fill="none" fill-rule="none" stroke="none" stroke-width="1" stroke-linecap="butt" stroke-linejoin="miter" stroke-miterlimit="10" stroke-dasharray="" stroke-dashoffset="0" font-family="none" font-weight="none" font-size="none" text-anchor="none" style="mix-blend-mode: normal"><path d="M0,192v-192h192v192z" fill="none" fill-rule="nonzero"/><g id="original-icon" fill="#ffffff" fill-rule="evenodd"><g id="surface1"><path d="M49.92,19.2l11.52,34.56v23.04h7.68v-23.04l11.52,-34.56h-7.68l-7.68,23.04l-7.68,-23.04zM92.16,34.56c-4.095,0 -6.105,0.645 -8.61,2.7c-2.4,2.025 -3.06,3.585 -2.91,8.82v19.2c0,3.825 0.63,6.345 2.94,8.58c2.4,2.235 4.665,2.94 8.58,2.94c4.095,0 6.33,-0.705 8.64,-2.94c2.4,-2.145 2.88,-4.755 2.88,-8.58v-19.2c0,-3.39 -0.6,-6.6 -2.925,-8.745c-2.4,-2.205 -4.875,-2.775 -8.595,-2.775zM111.36,34.56v34.56c0,3.735 3.765,7.68 7.68,7.68c3.915,0 5.985,-1.965 7.68,-3.84v3.84h7.68v-42.24h-7.68v30.72c-0.045,2.625 -3.135,3.84 -3.84,3.84c-0.795,0 -3.84,-0.165 -3.84,-3.84v-30.72zM92.16,42.24c1.155,0 3.84,-0.015 3.84,3.84v19.2c0,3.72 -2.595,3.84 -3.84,3.84c-1.155,0 -3.84,-0.045 -3.84,-3.84v-19.2c0,-3.135 1.665,-3.84 3.84,-3.84zM38.4,84.48c-13.8,0 -23.04,9.15 -23.04,23.04v36.48c0,13.89 9.24,24.96 23.04,24.96h115.2c13.8,0 23.04,-9.15 23.04,-23.04v-38.4c0,-13.89 -9.24,-23.04 -23.04,-23.04zM46.08,99.84h23.04v7.68h-7.68v46.08h-7.68v-46.08h-7.68zM99.84,99.84h7.68v15.36c0.885,-1.38 2.205,-2.475 3.465,-3.09c1.23,-0.63 2.475,-0.99 3.735,-0.99c2.49,0 4.44,0.9 5.775,2.58c1.335,1.695 2.385,3.945 2.385,7.26v23.04c0,2.85 -0.96,4.62 -2.22,6.135c-1.23,1.515 -3.075,3.435 -5.46,3.465c-4.035,0.045 -6.195,-2.115 -7.68,-3.84v3.84h-7.68zM69.12,111.36h7.68v30.72c0,0.885 1.035,3.87 3.84,3.84c3.12,-0.03 3.15,-2.94 3.84,-3.84v-30.72h7.68v42.24h-7.68v-3.84c-1.425,1.68 -2.16,2.205 -3.765,3c-1.59,0.9 -3.21,0.84 -4.71,0.84c-1.86,0 -3.975,-1.68 -4.965,-2.94c-0.885,-1.155 -1.92,-2.34 -1.92,-4.74zM139.005,111.36c3.645,0 6.21,0.78 8.145,2.82c1.98,2.04 2.61,4.425 2.61,8.265v11.955h-15.36v5.94c0,2.145 0.285,3.51 0.84,4.32c0.525,0.885 1.59,1.275 3,1.26c1.56,-0.015 2.55,-0.33 3.075,-1.035c0.54,-0.63 0.765,-2.415 0.765,-4.725v-1.92h7.68v2.28c0,4.185 -0.33,7.305 -2.4,9.345c-1.95,2.145 -4.995,3.135 -8.985,3.135c-3.645,0 -6.495,-1.08 -8.535,-3.3c-2.04,-2.22 -3.105,-5.265 -3.105,-9.18v-18.075c0,-3.48 1.215,-6.06 3.45,-8.355c1.8,-1.845 5.175,-2.73 8.82,-2.73zM111.36,117.12c-2.115,0 -3.81,1.905 -3.84,3.84v23.04c0.03,1.11 1.725,1.92 3.84,1.92c2.115,0 3.84,-1.635 3.84,-3.75v-19.29c0,-3.84 -1.725,-5.76 -3.84,-5.76zM138.24,119.04c-2.115,0 -3.81,1.785 -3.84,3.84v3.84h7.68v-3.84c0,-2.355 -1.725,-3.84 -3.84,-3.84z"/></g></g><path d="" fill="none" fill-rule="nonzero"/><path d="" fill="none" fill-rule="nonzero"/><path d="M96,192c-53.01934,0 -96,-42.98066 -96,-96v0c0,-53.01934 42.98066,-96 96,-96v0c53.01934,0 96,42.98066 96,96v0c0,53.01934 -42.98066,96 -96,96z" fill="none" fill-rule="nonzero"/><path d="M96,188.16c-50.89856,0 -92.16,-41.26144 -92.16,-92.16v0c0,-50.89856 41.26144,-92.16 92.16,-92.16v0c50.89856,0 92.16,41.26144 92.16,92.16v0c0,50.89856 -41.26144,92.16 -92.16,92.16z" fill="none" fill-rule="nonzero"/></g></g></svg>
